<svg width="103" height="31" viewBox="0 0 103 31" fill="none" xmlns="http://www.w3.org/2000/svg">
<path d="M101.597 16.5723C101.82 16.4835 102.011 16.3297 102.146 16.131C102.281 15.9322 102.353 15.6975 102.353 15.4573C102.353 15.2171 102.281 14.9824 102.146 14.7837C102.011 14.5849 101.82 14.4312 101.597 14.3423L67.6555 0.765897C67.4295 0.675479 67.1814 0.655918 66.944 0.709809C66.7067 0.763701 66.4913 0.888496 66.3265 1.06764C66.1617 1.24678 66.0553 1.47179 66.0214 1.71281C65.9875 1.95384 66.0277 2.19948 66.1366 2.41713L72.6567 15.4573L66.1349 28.4958C66.0251 28.7137 65.9843 28.9598 66.018 29.2015C66.0517 29.4431 66.1582 29.6688 66.3234 29.8483C66.4885 30.0279 66.7045 30.1528 66.9425 30.2065C67.1805 30.2602 67.4292 30.24 67.6555 30.1487L101.597 16.5723Z" fill="#BA00C7"/>
</svg>
