<svg width="30" height="30" viewBox="0 0 30 30" fill="none" xmlns="http://www.w3.org/2000/svg">
<g clip-path="url(#clip0_20_1328)">
<path d="M22.425 22.4249C20.2882 24.0537 17.6864 24.956 15 24.9999C6.25 24.9999 1.25 14.9999 1.25 14.9999C2.80486 12.1023 4.96142 9.57067 7.575 7.57491M12.375 5.29991C13.2354 5.09851 14.1163 4.99783 15 4.99991C23.75 4.99991 28.75 14.9999 28.75 14.9999C27.9912 16.4194 27.0863 17.7558 26.05 18.9874M17.65 17.6499C17.3067 18.0183 16.8927 18.3139 16.4327 18.5188C15.9727 18.7238 15.4761 18.834 14.9726 18.8429C14.4691 18.8517 13.969 18.7591 13.502 18.5705C13.0351 18.3819 12.6109 18.1012 12.2548 17.7451C11.8987 17.389 11.618 16.9648 11.4294 16.4979C11.2408 16.031 11.1482 15.5308 11.157 15.0273C11.1659 14.5238 11.2761 14.0272 11.4811 13.5672C11.6861 13.1072 11.9816 12.6932 12.35 12.3499" stroke="#A6BBD1" stroke-width="2.25" stroke-linecap="round" stroke-linejoin="round"/>
<path d="M1.25 1.25006L28.75 28.7501" stroke="#A6BBD1" stroke-width="2.25" stroke-linecap="round" stroke-linejoin="round"/>
</g>
<defs>
<clipPath id="clip0_20_1328">
<rect width="30" height="30" fill="white"/>
</clipPath>
</defs>
</svg>
