<svg width="140" height="167" viewBox="0 0 140 167" fill="none" xmlns="http://www.w3.org/2000/svg">
<g filter="url(#filter0_ddd_8_11)">
<path d="M57.7965 7.9282C65.2221 3.64102 74.3708 3.64102 81.7965 7.9282L107.593 22.8218C115.019 27.109 119.593 35.032 119.593 43.6064V73.3936C119.593 81.968 115.019 89.891 107.593 94.1782L81.7965 109.072C74.3708 113.359 65.2221 113.359 57.7965 109.072L32 94.1782C24.5744 89.891 20 81.968 20 73.3936V43.6064C20 35.032 24.5744 27.109 32 22.8218L57.7965 7.9282Z" fill="#BA00C7"/>
<path d="M80.7965 9.66025L106.593 24.5538C113.4 28.4838 117.593 35.7466 117.593 43.6064V73.3936C117.593 81.2534 113.4 88.5162 106.593 92.4462L80.7965 107.34C73.9896 111.27 65.6033 111.27 58.7965 107.34L33 92.4462C26.1932 88.5162 22 81.2534 22 73.3936V43.6064C22 35.7466 26.1932 28.4838 33 24.5538L58.7965 9.66025C65.6033 5.73033 73.9896 5.73033 80.7965 9.66025Z" stroke="white" stroke-width="4"/>
</g>
<defs>
<filter id="filter0_ddd_8_11" x="0" y="0.712814" width="139.593" height="165.574" filterUnits="userSpaceOnUse" color-interpolation-filters="sRGB">
<feFlood flood-opacity="0" result="BackgroundImageFix"/>
<feColorMatrix in="SourceAlpha" type="matrix" values="0 0 0 0 0 0 0 0 0 0 0 0 0 0 0 0 0 0 127 0" result="hardAlpha"/>
<feOffset dy="4"/>
<feGaussianBlur stdDeviation="4"/>
<feColorMatrix type="matrix" values="0 0 0 0 0 0 0 0 0 0 0 0 0 0 0 0 0 0 0.02 0"/>
<feBlend mode="normal" in2="BackgroundImageFix" result="effect1_dropShadow_8_11"/>
<feColorMatrix in="SourceAlpha" type="matrix" values="0 0 0 0 0 0 0 0 0 0 0 0 0 0 0 0 0 0 127 0" result="hardAlpha"/>
<feOffset dy="15"/>
<feGaussianBlur stdDeviation="7.5"/>
<feColorMatrix type="matrix" values="0 0 0 0 0 0 0 0 0 0 0 0 0 0 0 0 0 0 0.02 0"/>
<feBlend mode="normal" in2="effect1_dropShadow_8_11" result="effect2_dropShadow_8_11"/>
<feColorMatrix in="SourceAlpha" type="matrix" values="0 0 0 0 0 0 0 0 0 0 0 0 0 0 0 0 0 0 127 0" result="hardAlpha"/>
<feOffset dy="34"/>
<feGaussianBlur stdDeviation="10"/>
<feColorMatrix type="matrix" values="0 0 0 0 0 0 0 0 0 0 0 0 0 0 0 0 0 0 0.01 0"/>
<feBlend mode="normal" in2="effect2_dropShadow_8_11" result="effect3_dropShadow_8_11"/>
<feBlend mode="normal" in="SourceGraphic" in2="effect3_dropShadow_8_11" result="shape"/>
</filter>
</defs>
</svg>
